<svg xmlns="http://www.w3.org/2000/svg" version="1.1" id="Layer_1" x="0px" y="0px" width="200px" viewBox="0 0 200 200" enable-background="new 0 0 200 200" xml:space="preserve" height="200px">
<path fill="#605A57" opacity="1.000000" stroke="none" d=" M201.000000,44.000000   C201.000000,75.687561 201.000000,107.375122 200.606659,139.724152   C200.143005,142.542709 200.096985,144.700897 199.997864,146.856659   C199.680161,153.765884 199.641403,160.704315 198.949036,167.576447   C197.627823,180.690292 188.840286,186.252258 176.063339,186.837997   C165.686035,187.313736 155.240524,186.019501 144.828018,186.070663   C125.424774,186.166016 106.020081,187.063217 86.622421,186.893112   C66.625465,186.717743 46.630623,185.799210 26.645729,184.949997   C15.500018,184.476364 8.788944,179.500687 6.042682,168.459839   C3.857554,159.674927 3.297131,150.487076 1.988123,141.482071   C1.721171,139.645645 1.332540,137.826904 1.000000,136.000000   C1.000000,116.979103 1.000000,97.958214 1.367942,78.314117   C2.629004,69.090919 5.814464,61.965267 14.061435,57.881813   C14.976985,57.428478 15.821728,55.947067 15.917934,54.872494   C16.417397,49.293781 16.843050,43.696224 16.962994,38.098125   C17.290751,22.800781 25.398884,15.080051 40.381512,15.004935   C48.547184,14.963996 56.714649,14.902050 64.878738,15.022972   C74.146164,15.160236 81.680252,18.670044 84.809685,27.870996   C86.377594,32.480850 88.837334,33.185268 93.059395,33.084911   C104.001190,32.824814 114.953270,32.997627 126.422211,32.997627   C132.579880,26.121399 141.700577,25.392262 150.658279,25.129086   C159.399170,24.872278 168.187851,25.433220 176.923828,26.070261   C184.072311,26.591537 191.500931,27.328619 196.148087,33.814552   C198.304123,36.823700 199.415192,40.581558 201.000000,44.000000  M36.950138,64.294044   C33.462769,64.492218 29.962755,64.564384 26.490442,64.912689   C16.870222,65.877686 12.933784,69.779762 12.074888,79.510559   C11.519413,85.803757 10.831801,92.158470 11.134005,98.440849   C12.155951,119.685760 13.183087,140.946991 15.058613,162.126694   C15.893785,171.558029 19.723751,174.464172 29.186901,175.034744   C40.806114,175.735306 52.462029,176.062469 64.103767,176.106888   C91.410301,176.211060 118.717865,176.007141 146.024963,176.020584   C155.828598,176.025406 165.683655,176.988724 175.422165,176.264008   C186.739517,175.421783 189.671585,171.557037 189.816116,160.132629   C190.201538,129.670990 190.495285,99.208199 190.841110,68.746040   C190.909134,62.753361 191.190109,56.759830 191.121323,50.769585   C191.003067,40.472816 188.463852,37.718163 178.350693,36.906799   C173.048325,36.481396 167.719147,36.376316 162.400253,36.175297   C158.407944,36.024414 154.403442,36.087505 150.420563,35.816879   C140.151367,35.119122 132.701462,38.839893 128.614105,48.726082   C123.795830,60.380157 115.151291,65.441048 102.295837,64.989487   C80.841782,64.235893 59.355091,64.411224 36.950138,64.294044  M91.079552,43.547535   C83.284981,43.200222 77.290192,40.939476 75.490974,31.952368   C75.024757,29.623608 71.234886,26.413303 68.827522,26.283607   C57.434998,25.669840 45.978794,25.692423 34.580280,26.230122   C32.487293,26.328856 29.199347,29.616838 28.798719,31.851463   C27.468807,39.269489 27.204687,46.878590 26.554552,54.159786   C44.226784,54.159786 60.851360,54.083294 77.474770,54.189404   C86.954216,54.249912 96.431557,54.769676 105.910240,54.782013   C113.632034,54.792065 117.910294,51.070393 118.952095,43.665863   C109.918411,43.665863 100.948685,43.665863 91.079552,43.547535  z"/>
<path fill="#FEFEFE" opacity="1.000000" stroke="none" d=" M201.000000,43.531342   C199.415192,40.581558 198.304123,36.823700 196.148087,33.814552   C191.500931,27.328619 184.072311,26.591537 176.923828,26.070261   C168.187851,25.433220 159.399170,24.872278 150.658279,25.129086   C141.700577,25.392262 132.579880,26.121399 126.422211,32.997627   C114.953270,32.997627 104.001190,32.824814 93.059395,33.084911   C88.837334,33.185268 86.377594,32.480850 84.809685,27.870996   C81.680252,18.670044 74.146164,15.160236 64.878738,15.022972   C56.714649,14.902050 48.547184,14.963996 40.381512,15.004935   C25.398884,15.080051 17.290751,22.800781 16.962994,38.098125   C16.843050,43.696224 16.417397,49.293781 15.917934,54.872494   C15.821728,55.947067 14.976985,57.428478 14.061435,57.881813   C5.814464,61.965267 2.629004,69.090919 1.367942,77.845459   C1.000000,52.368454 1.000000,26.736908 1.000000,1.060142   C67.666672,1.060142 134.333344,1.060142 201.000000,1.060142   C201.000000,15.101084 201.000000,29.081884 201.000000,43.531342  z"/>
<path fill="#FEFEFE" opacity="1.000000" stroke="none" d=" M1.000000,136.468658   C1.332540,137.826904 1.721171,139.645645 1.988123,141.482071   C3.297131,150.487076 3.857554,159.674927 6.042682,168.459839   C8.788944,179.500687 15.500018,184.476364 26.645729,184.949997   C46.630623,185.799210 66.625465,186.717743 86.622421,186.893112   C106.020081,187.063217 125.424774,186.166016 144.828018,186.070663   C155.240524,186.019501 165.686035,187.313736 176.063339,186.837997   C188.840286,186.252258 197.627823,180.690292 198.949036,167.576447   C199.641403,160.704315 199.680161,153.765884 199.997864,146.856659   C200.096985,144.700897 200.143005,142.542709 200.606659,140.192810   C201.000000,160.306015 201.000000,180.612015 201.000000,200.959015   C134.450256,200.959015 67.900490,200.959015 1.000000,200.959015   C1.000000,179.647049 1.000000,158.292191 1.000000,136.468658  z"/>
<path fill="#EEECBA" opacity="1.000000" stroke="none" d=" M37.416138,64.244759   C59.355091,64.411224 80.841782,64.235893 102.295837,64.989487   C115.151291,65.441048 123.795830,60.380157 128.614105,48.726082   C132.701462,38.839893 140.151367,35.119122 150.420563,35.816879   C154.403442,36.087505 158.407944,36.024414 162.400253,36.175297   C167.719147,36.376316 173.048325,36.481396 178.350693,36.906799   C188.463852,37.718163 191.003067,40.472816 191.121323,50.769585   C191.190109,56.759830 190.909134,62.753361 190.841110,68.746040   C190.495285,99.208199 190.201538,129.670990 189.816116,160.132629   C189.671585,171.557037 186.739517,175.421783 175.422165,176.264008   C165.683655,176.988724 155.828598,176.025406 146.024963,176.020584   C118.717865,176.007141 91.410301,176.211060 64.103767,176.106888   C52.462029,176.062469 40.806114,175.735306 29.186901,175.034744   C19.723751,174.464172 15.893785,171.558029 15.058613,162.126694   C13.183087,140.946991 12.155951,119.685760 11.134005,98.440849   C10.831801,92.158470 11.519413,85.803757 12.074888,79.510559   C12.933784,69.779762 16.870222,65.877686 26.490442,64.912689   C29.962755,64.564384 33.462769,64.492218 37.416138,64.244759  z"/>
<path fill="#C3C2C0" opacity="1.000000" stroke="none" d=" M91.529251,43.606697   C100.948685,43.665863 109.918411,43.665863 118.952095,43.665863   C117.910294,51.070393 113.632034,54.792065 105.910240,54.782013   C96.431557,54.769676 86.954216,54.249912 77.474770,54.189404   C60.851360,54.083294 44.226784,54.159786 26.554552,54.159786   C27.204687,46.878590 27.468807,39.269489 28.798719,31.851463   C29.199347,29.616838 32.487293,26.328856 34.580280,26.230122   C45.978794,25.692423 57.434998,25.669840 68.827522,26.283607   C71.234886,26.413303 75.024757,29.623608 75.490974,31.952368   C77.290192,40.939476 83.284981,43.200222 91.529251,43.606697  z"/>
</svg>